# xmcd
#
# Track frame offsets:
#	150
#	600
#	17128
#	31378
#	54065
#	69393
#
# Disc length: 1059 seconds
#
# Revision: 1
# Processed by: cddbd v1.5.2PL0 Copyright (c) Steve Scherf et al.
# Submitted via: audiograbber 1.83.01
#
DISCID=3c042106
DTITLE=True Strays - Homeward Bound
DYEAR=2019
DGENRE=Blues
TTITLE0=Introduction
TTITLE1=Homesick Blues
TTITLE2=Like a Shadow
TTITLE3=Sabotage State of Mind
TTITLE4=Born on the Freeway
TTITLE5=Homeward Bound
EXTD=
EXTT0=
EXTT1=
EXTT2=
EXTT3=
EXTT4=
EXTT5=
PLAYORDER=
